<?xml version="1.0" encoding="UTF-8"?>
<svg version="1.1" xmlns="http://www.w3.org/2000/svg" width="512" height="512">
<path d="M0 0 C0.90250183 -0.01582017 1.80500367 -0.03164033 2.73485404 -0.0479399 C5.74812418 -0.09791735 8.76138364 -0.13383401 11.77485657 -0.16934204 C13.94046341 -0.20153444 16.10606188 -0.23429425 18.27165222 -0.26757812 C38.0438183 -0.55684062 57.81845654 -0.7071325 77.59230328 -0.82541466 C92.19029583 -0.91444495 106.784516 -1.06855668 121.38082284 -1.30858362 C131.66562103 -1.47195951 141.94939202 -1.55777952 152.23543197 -1.58801901 C158.3681937 -1.60826171 164.49619817 -1.66208532 170.62752342 -1.80064011 C212.86477829 -2.71428735 212.86477829 -2.71428735 224.052495 7.2814846 C227.12004971 10.62927482 229.75798736 14.0601496 232.20057106 17.88560104 C236.35548577 24.24586698 241.91425714 29.58652386 247.32685852 34.87509155 C250.75723848 38.26288815 254.14970327 41.62731244 257.26435852 45.31259155 C260.5725849 49.21779111 264.19199345 52.77790324 267.82685852 56.37509155 C272.03696481 60.54155849 276.09927063 64.72794557 279.92451477 69.2539978 C282.60838339 72.24648376 285.46919941 75.04942414 288.32685852 77.87509155 C291.75530403 81.26515536 295.14946551 84.62703112 298.26435852 88.31259155 C301.5725849 92.21779111 305.19199345 95.77790324 308.82685852 99.37509155 C313.03696481 103.54155849 317.09927063 107.72794557 320.92451477 112.2539978 C323.60841097 115.24651451 326.46955403 118.04902319 329.32685852 120.87509155 C345.29891417 136.70662393 345.29891417 136.70662393 346.20290601 142.98809052 C346.20339307 143.92996468 346.20388013 144.87183884 346.20438194 145.84225464 C346.21220518 146.93449561 346.22002843 148.02673658 346.22808874 149.15207577 C346.22139657 150.34651082 346.21470441 151.54094587 346.20780945 152.77157593 C346.21248942 154.04482759 346.21716939 155.31807924 346.22199118 156.62991428 C346.23452164 160.16229282 346.22832147 163.69442839 346.21903253 167.22680783 C346.21225015 171.0375186 346.2227196 174.84818733 346.23097229 178.65888977 C346.24432358 186.12561301 346.24142479 193.59224585 346.23273437 201.05897266 C346.22595966 207.13140436 346.2250402 213.20381072 346.22830582 219.27624512 C346.22876552 220.14050234 346.22922521 221.00475956 346.22969884 221.89520639 C346.23065804 223.65102522 346.23163068 225.40684405 346.23261662 227.16266286 C346.24117565 243.63641332 346.23133046 260.11011374 346.21521552 276.58385599 C346.20183088 290.70293231 346.20412412 304.82193456 346.2179718 318.94100952 C346.23405138 335.34334469 346.24033161 351.74563588 346.23113501 368.14797783 C346.2301794 369.89978917 346.22923629 371.65160051 346.22830582 373.40341187 C346.22784299 374.26527418 346.22738016 375.1271365 346.22690331 376.01511586 C346.22431913 382.07245577 346.22867247 388.12976769 346.23574448 394.18710327 C346.24418695 401.58086571 346.24182266 408.97453269 346.22590224 416.36828429 C346.21805338 420.1369788 346.21486934 423.90551458 346.2248497 427.67420769 C346.23553282 431.77052079 346.22271969 435.86643811 346.20780945 439.96273804 C346.21450161 441.13932732 346.22119378 442.3159166 346.22808874 443.5281601 C346.15227002 454.31576359 344.3142646 464.7905781 339.32685852 474.43759155 C338.81844421 475.43701782 338.81844421 475.43701782 338.29975891 476.45663452 C334.54173928 483.46277064 329.51595519 488.89349993 323.82685852 494.37509155 C322.98767883 495.26067749 322.98767883 495.26067749 322.13154602 496.16415405 C318.34632983 499.8700987 313.74828692 502.16241197 309.07685852 504.56259155 C308.11163269 505.06290894 308.11163269 505.06290894 307.12690735 505.57333374 C297.46187995 510.3262728 288.12172857 511.82090973 277.4234314 511.75604248 C275.62118698 511.76306244 275.62118698 511.76306244 273.78253359 511.77022421 C270.47830763 511.7800572 267.17459977 511.77660379 263.87040627 511.76726556 C260.29499555 511.76043965 256.71962803 511.77097378 253.14422607 511.77920532 C246.15190692 511.79250771 239.15968467 511.78968045 232.1673618 511.7809674 C226.48122019 511.77417691 220.79510562 511.77328002 215.10896111 511.77653885 C214.29795996 511.77699855 213.48695882 511.77745825 212.65138189 511.77793188 C211.00354953 511.77889111 209.35571718 511.77986375 207.70788484 511.78084965 C192.27519424 511.78939345 176.8425572 511.77958558 161.40987539 511.76344855 C148.1859686 511.75004883 134.96214084 511.75237257 121.73823547 511.76620483 C106.36022229 511.78228291 90.982256 511.7885669 75.60423559 511.77936804 C73.96234763 511.77841246 72.32045967 511.77746934 70.6785717 511.77653885 C69.87085669 511.77607602 69.06314168 511.7756132 68.23095046 511.77513634 C62.55628968 511.77255294 56.88165879 511.77690345 51.20700264 511.78397751 C44.28473433 511.79241761 37.36256799 511.79005996 30.44031126 511.77413528 C26.91270199 511.76628577 23.38526234 511.76310369 19.85765457 511.77308273 C16.02409824 511.78376269 12.19081574 511.77095524 8.35726929 511.75604248 C7.2557879 511.76273465 6.15430652 511.76942681 5.01944691 511.77632177 C-12.81096211 511.64235331 -28.36616163 504.70700569 -41.17314148 492.37509155 C-56.06974413 476.90462299 -60.65062714 459.82907273 -60.55409241 438.82723999 C-60.55755474 437.17551236 -60.56232316 435.52378704 -60.56827414 433.8720665 C-60.58073468 429.36165282 -60.57463641 424.85143091 -60.56531549 420.34101677 C-60.55850497 415.46568412 -60.56901613 410.59038357 -60.57725525 405.71505737 C-60.59057344 396.17549817 -60.58772337 386.6360099 -60.57901733 377.09644794 C-60.57223366 369.34130078 -60.57132702 361.58617345 -60.57458878 353.83102417 C-60.57504847 352.72597023 -60.57550817 351.62091629 -60.5759818 350.48237586 C-60.57694101 348.23726304 -60.57791365 345.99215022 -60.57889958 343.74703741 C-60.58744787 322.70990136 -60.57762814 301.67280457 -60.56149848 280.63567495 C-60.54809582 262.59697125 -60.55042407 244.55832546 -60.56425476 226.5196228 C-60.58032048 205.55616935 -60.58662395 184.59275028 -60.57741797 163.62929153 C-60.57646235 161.39258067 -60.57551924 159.15586981 -60.57458878 156.91915894 C-60.57412595 155.81874323 -60.57366312 154.71832752 -60.57318627 153.58456588 C-60.57059936 145.84151491 -60.57496093 138.09848581 -60.58202744 130.35543823 C-60.59045364 120.91527545 -60.58813872 111.47518747 -60.5721852 102.03503323 C-60.5643176 97.22138796 -60.5611851 92.40786728 -60.57113266 87.59422302 C-60.58011138 83.18257869 -60.57509463 78.77117375 -60.5592 74.35955095 C-60.55586561 72.76886114 -60.55751584 71.17815085 -60.56482737 69.58747435 C-60.64987677 49.53680223 -55.27572987 33.02095783 -41.17314148 18.37509155 C-29.77834782 7.40297957 -15.9846154 0.14987975 0 0 Z M-23.42704773 37.3946228 C-31.9557632 47.0681323 -35.29078439 58.44348043 -35.30456924 71.16315556 C-35.30662188 71.81199686 -35.30867451 72.46083817 -35.31078935 73.12934133 C-35.31642515 75.29453455 -35.31500636 77.45966346 -35.31358337 79.62486267 C-35.31616898 81.19660084 -35.31918268 82.76833835 -35.32258677 84.34007496 C-35.33063715 88.65263542 -35.33244525 92.96517923 -35.33318424 97.27774632 C-35.33503823 101.93165412 -35.34258732 106.58555335 -35.34931946 111.23945618 C-35.36288955 121.41320975 -35.36892549 131.58695937 -35.37333012 141.76072049 C-35.37609488 148.11635436 -35.38033268 154.47198671 -35.38483429 160.82761955 C-35.39702543 178.43324087 -35.40732492 196.03886098 -35.41070938 213.64448643 C-35.41092895 214.77084621 -35.41114851 215.89720599 -35.41137473 217.05769789 C-35.41159301 218.18671489 -35.41181129 219.31573189 -35.41203618 220.47896153 C-35.41247964 222.76668521 -35.41292621 225.05440889 -35.41337585 227.34213257 C-35.41359728 228.47691655 -35.41381871 229.61170054 -35.41404685 230.78087192 C-35.41799351 249.16178855 -35.43544422 267.54266551 -35.45873538 285.92356683 C-35.48246886 304.80636483 -35.49491215 323.68914294 -35.4960773 342.5719561 C-35.49699296 353.16932107 -35.50271771 363.76663435 -35.52089691 374.36398506 C-35.53632488 383.389184 -35.54140248 392.41431527 -35.53315881 401.4395249 C-35.5292618 406.04073939 -35.53013534 410.6418177 -35.54421616 415.24301529 C-35.55701215 419.4631289 -35.55570795 423.68300481 -35.54362544 427.90311836 C-35.54167826 429.42199299 -35.54470111 430.94088478 -35.55346981 432.45973534 C-35.63820351 448.14168353 -33.96681646 461.68545724 -23.10282898 473.65634155 C-11.95144196 484.36806816 1.51882287 486.69319533 16.44013977 486.62905884 C17.56868881 486.63217882 18.69723785 486.6352988 19.85998535 486.63851333 C23.61983045 486.64645393 27.37951238 486.64018498 31.13935852 486.63388062 C33.84378898 486.63549258 36.54821264 486.64008213 39.25263977 486.64450073 C45.82262936 486.65337048 52.39257312 486.65148354 58.96256447 486.64567545 C64.30453999 486.64114942 69.64650272 486.64055012 74.98847961 486.64272308 C75.75023719 486.64302955 76.51199476 486.64333602 77.2968359 486.64365177 C78.84457525 486.64429125 80.3923146 486.64493968 81.94005394 486.64559695 C96.43605071 486.65129316 110.93202214 486.6447535 125.42801476 486.63399622 C137.85264203 486.62506135 150.27723192 486.62661359 162.70185852 486.63583374 C177.14777237 486.64654891 191.59366403 486.6507439 206.0395813 486.64460921 C207.58146667 486.64397215 209.12335205 486.64334341 210.66523743 486.64272308 C211.80304358 486.64226026 211.80304358 486.64226026 212.96383572 486.64178808 C218.29627454 486.64006488 223.62869923 486.64296814 228.96113586 486.64768219 C235.46405486 486.65330489 241.9669256 486.65174544 248.4698391 486.6411207 C251.78452925 486.63588261 255.09907291 486.63486104 258.41377258 486.64041901 C262.01378714 486.64589811 265.61357696 486.63901138 269.21357727 486.62905884 C270.25152939 486.63352028 271.28948151 486.63798172 272.35888672 486.64257836 C284.88855007 486.57556542 295.94570624 483.763535 306.13935852 476.12509155 C316.42618389 465.59903769 320.46007982 454.42863462 320.30787659 439.85295105 C320.31129429 438.63890443 320.31471199 437.42485781 320.31823325 436.1740219 C320.32364783 432.83505329 320.31128259 429.49704 320.29112101 426.15818775 C320.27374327 422.54621502 320.27969995 418.93426843 320.2827301 415.32226562 C320.28482098 409.07452826 320.27233957 402.82695882 320.24977875 396.57926369 C320.21718159 387.54632874 320.20684387 378.51347446 320.20182678 369.48048707 C320.19308619 354.82283207 320.16650427 340.16526643 320.12861633 325.50765991 C320.09186418 311.27459152 320.06356812 297.04154746 320.04658508 282.80844116 C320.04500874 281.49103056 320.04500874 281.49103056 320.04340056 280.1470056 C320.03818016 275.74068171 320.03312539 271.33435765 320.02815294 266.92803347 C319.98672942 230.41032309 319.91631478 193.8927143 319.82685852 157.37509155 C318.52045914 157.36296127 318.52045914 157.36296127 317.18766785 157.35058594 C308.92143685 157.27217402 300.65535851 157.18474894 292.3893261 157.08756447 C288.14115952 157.03792651 283.89301399 156.99159785 279.64472961 156.95321655 C275.53378177 156.91594785 271.42302549 156.86948449 267.31224442 156.81702805 C265.75525955 156.79870214 264.19823399 156.78351674 262.64118576 156.77174759 C242.71218289 156.61592743 224.88136547 154.4738221 209.63935852 140.3477478 C195.48952464 125.52794072 194.38270772 107.19646855 194.31513977 87.85165405 C194.29825462 86.01077101 194.28009937 84.16989923 194.26074219 82.32904053 C194.21365198 77.5321098 194.18357945 72.73522472 194.15730286 67.93814087 C194.12728821 63.02380357 194.08083086 58.10962305 194.0358429 53.19540405 C193.95027729 43.58871594 193.88272655 33.98199514 193.82685852 24.37509155 C169.35703545 24.32833526 144.88721908 24.29308491 120.41736031 24.27146721 C109.05514659 24.26116218 97.69296065 24.24711662 86.33076477 24.22421265 C76.42550032 24.20425511 66.52025599 24.19136949 56.614972 24.18691456 C51.37201881 24.1843112 46.12912321 24.17820821 40.88618851 24.16363144 C35.94670704 24.15001021 31.00730662 24.14587808 26.06780815 24.14887619 C24.25948966 24.14832806 22.45116833 24.14437777 20.64286613 24.1366806 C4.04127414 24.06950841 -10.70188287 25.41021598 -23.42704773 37.3946228 Z M219.82685852 45.37509155 C219.7102702 53.25149165 219.62179559 61.12768418 219.56779766 69.00473404 C219.54186213 72.66365602 219.50676546 76.3219815 219.44966125 79.9805603 C219.3947581 83.52085862 219.36531784 87.06058855 219.35247231 90.60128021 C219.33893238 92.58859533 219.29999502 94.5756863 219.26037598 96.56265259 C219.25751805 105.94928936 220.62568918 114.62905087 227.03881836 121.87393188 C234.2060147 128.71183267 241.65488722 131.51091993 251.53511047 131.48861694 C252.65589493 131.48854141 253.77667938 131.48846588 254.931427 131.48838806 C256.73011482 131.48064613 256.73011482 131.48064613 258.56513977 131.4727478 C259.80104355 131.47133286 261.03694733 131.46991791 262.31030273 131.46846008 C265.58344197 131.46381774 268.85653139 131.45484466 272.12965393 131.4437561 C275.474681 131.4334956 278.81971025 131.42903786 282.16474915 131.42391968 C288.71880502 131.41290062 295.2728277 131.39616991 301.82685852 131.37509155 C298.6830436 127.07065061 295.59803028 122.88474945 291.76826477 119.15634155 C291.05219055 118.45122437 290.33611633 117.74610718 289.5983429 117.0196228 C288.86937805 116.31192749 288.14041321 115.60423218 287.38935852 114.87509155 C282.55235633 110.15417742 277.89707331 105.39038167 273.49067688 100.26376343 C270.9048427 97.32847169 268.12349823 94.60763457 265.32685852 91.87509155 C261.29149122 87.88988136 257.43262845 83.85990006 253.76435852 79.53134155 C250.52388361 75.92500657 247.03572213 72.56474905 243.58906555 69.15682983 C240.11219879 65.70404527 236.82885611 62.16468973 233.65498352 58.42977905 C231.18124579 55.64946699 228.57781764 53.01113435 225.95185852 50.37509155 C225.46249817 49.88121948 224.97313782 49.38734741 224.46894836 48.87850952 C222.49082814 46.44117411 222.49082814 46.44117411 219.82685852 45.37509155 Z " fill="#000000" transform="translate(114.17314147949219,-0.375091552734375)"/>
<path d="M0 0 C4.40485611 2.07776231 6.58414411 4.20240209 8.39811134 8.72909737 C9.71724886 13.7061522 9.43839646 18.88940802 9.43237305 24.00366211 C9.44766052 25.95103271 9.44766052 25.95103271 9.46325684 27.93774414 C9.49073741 31.48062764 9.50009907 35.02335063 9.50611091 38.56632686 C9.51551801 42.27528489 9.54172321 45.98412413 9.56611633 49.69300842 C9.60972098 56.70865477 9.63830492 63.72427797 9.66143972 70.74001843 C9.68852384 78.73042379 9.7324333 86.72070929 9.77772844 94.71102893 C9.87048822 111.14062512 9.94220851 127.5702428 10 144 C11.75742711 142.25529959 13.51309909 140.50889104 15.26782227 138.76147461 C15.76134438 138.27188011 16.25486649 137.78228561 16.76334381 137.27785492 C20.11608533 133.93557083 23.28270296 130.4901437 26.35888672 126.89501953 C29.31930977 123.47657209 32.45106198 120.21800015 35.5625 116.9375 C39.71971423 112.54351018 43.87372936 108.1480316 47.9765625 103.703125 C48.60232178 103.02644775 49.22808105 102.34977051 49.87280273 101.65258789 C51.04957343 100.37829389 52.22373091 99.10157974 53.39477539 97.82202148 C61.19672256 89.38866202 61.19672256 89.38866202 65.46484375 88.46875 C71.08810104 88.53981802 74.68774946 89.01116825 79 93 C81.3275735 96.91455543 81.4639797 100.51486288 81 105 C78.40898027 110.23690812 75.41148612 113.95309715 71.1875 117.9375 C70.11267609 118.97980768 69.03975162 120.02407769 67.96875 121.0703125 C67.45570313 121.57079102 66.94265625 122.07126953 66.4140625 122.58691406 C63.99262295 125.00668135 61.79199797 127.6026174 59.57421875 130.20703125 C57.41541177 132.66582134 55.08333895 134.92707782 52.75 137.21875 C50.91757513 139.08389674 49.20646865 141.01927746 47.5 143 C44.74618512 146.19639227 41.85239924 149.17309518 38.84228516 152.12646484 C37.07210766 153.92666921 35.41823696 155.78056692 33.7734375 157.6953125 C30.0032072 162.03177516 26.08244032 166.20972495 22.125 170.375 C16.93564201 175.8434455 11.84126227 181.34256318 6.9921875 187.1171875 C3.56516006 190.35606441 0.14882322 191.8563971 -4.5 192.4375 C-14.19732854 191.22533393 -21.2498108 180.95430172 -27.28515625 173.93359375 C-29.47149197 171.46836327 -31.80620358 169.18071363 -34.15722656 166.87402344 C-35.93133506 165.06982937 -37.58940378 163.21161331 -39.23828125 161.29296875 C-42.94715914 157.0275142 -46.79730552 152.91228008 -50.6875 148.8125 C-55.98475479 143.20791053 -61.25851535 137.58496403 -66.47119141 131.90161133 C-69.27744104 128.84758294 -72.11086006 125.82223562 -74.96875 122.81640625 C-75.64800537 122.09976807 -76.32726074 121.38312988 -77.02709961 120.64477539 C-78.3522434 119.2484232 -79.68100626 117.85549373 -81.01391602 116.46655273 C-89.42675979 107.58775995 -89.42675979 107.58775995 -89.4375 101.5625 C-89.28779469 97.07134081 -87.94873465 94.45423202 -85 91 C-81.83989643 88.89326429 -80.84087475 88.68111943 -77.1875 88.625 C-76.35605469 88.59664063 -75.52460938 88.56828125 -74.66796875 88.5390625 C-67.803113 89.72508443 -63.34429034 95.53059164 -58.875 100.4375 C-58.21757812 101.1490625 -57.56015625 101.860625 -56.8828125 102.59375 C-54.91631146 104.72412613 -52.95772931 106.86156505 -51 109 C-49.4769885 110.65291272 -47.95202132 112.30399966 -46.42675781 113.95483398 C-45.47461205 114.98599938 -44.52344132 116.01806593 -43.57324219 117.05102539 C-40.77661002 120.08915078 -37.96244257 123.10975053 -35.1328125 126.1171875 C-34.46765625 126.82423828 -33.8025 127.53128906 -33.1171875 128.25976562 C-31.82951965 129.6269659 -30.54054615 130.99293819 -29.25 132.35742188 C-28.65445313 132.98970703 -28.05890625 133.62199219 -27.4453125 134.2734375 C-26.92469238 134.82435059 -26.40407227 135.37526367 -25.86767578 135.94287109 C-24.1710854 137.81156006 -22.5235724 139.71055302 -20.88327026 141.62857056 C-20.34324812 142.25969568 -19.80322598 142.89082081 -19.24683952 143.54107094 C-18.83538248 144.02251753 -18.42392544 144.50396412 -18 145 C-17.99853344 144.30462317 -17.99706688 143.60924633 -17.99555588 142.89279747 C-17.95849132 125.96649109 -17.89948144 109.04041762 -17.81609726 92.11427879 C-17.77630136 83.92888437 -17.74391171 75.74358617 -17.72900391 67.55810547 C-17.7159902 60.42296432 -17.68903288 53.28803482 -17.64538693 46.15301287 C-17.62276557 42.37562141 -17.60708971 38.59849106 -17.60811615 34.82102585 C-17.60886239 31.26352245 -17.59092727 27.7065964 -17.55883217 24.1492424 C-17.54628808 22.22528844 -17.55340011 20.30123758 -17.56114197 18.3772583 C-17.48402998 11.98910355 -17.40991908 7.80314847 -13 3 C-9.04634592 -0.29471174 -5.00042515 -0.86281846 0 0 Z " fill="#000000" transform="translate(261,169)"/>
<path d="M0 0 C0.83631254 -0.00226556 1.67262508 -0.00453111 2.53428042 -0.00686532 C5.34087093 -0.0132031 8.14741313 -0.0123761 10.95401001 -0.0115509 C12.9645443 -0.01454253 14.97507801 -0.01794506 16.98561096 -0.02172852 C22.45048178 -0.03057225 27.91533694 -0.03290678 33.38021421 -0.0335443 C37.94042839 -0.03449326 42.50063892 -0.03817139 47.06085169 -0.0417164 C57.81869671 -0.04986233 68.57653336 -0.0523005 79.3343811 -0.05158997 C90.43608513 -0.05098908 101.53774058 -0.06154271 112.63943231 -0.07733363 C122.16734336 -0.09040368 131.69523853 -0.09577409 141.22315848 -0.09513456 C146.91528316 -0.09487942 152.60736468 -0.0977394 158.29948044 -0.10831261 C163.65267929 -0.11798459 169.00579363 -0.11807892 174.35899544 -0.11079597 C176.32379975 -0.10974903 178.2886093 -0.11211954 180.25340462 -0.11815643 C182.93555631 -0.12586369 185.61741524 -0.1212399 188.29956055 -0.11352539 C189.07699942 -0.11866895 189.85443829 -0.12381252 190.65543592 -0.12911195 C196.33439304 -0.09301846 200.64236117 0.87247478 205.52676392 3.75871277 C208.54335598 6.94289329 209.4410174 9.79418909 209.77676392 14.13371277 C208.87991639 19.21584873 206.61324249 21.77679402 202.77676392 25.13371277 C199.56259471 26.74079737 196.05942824 26.28168261 192.52828979 26.28088379 C191.66510124 26.28456048 190.80191268 26.28823717 189.9125669 26.29202527 C187.00303551 26.30309037 184.09353979 26.30691072 181.18399048 26.31071472 C179.10478603 26.31697723 177.0255827 26.32362384 174.94638062 26.33062744 C169.28512361 26.34805677 163.62387505 26.35859443 157.96259785 26.36683297 C154.42774877 26.37197894 150.89290233 26.37805484 147.35805511 26.3843441 C136.30450921 26.4034014 125.25097001 26.4176315 114.19741082 26.42595607 C101.42649815 26.43573204 88.65575864 26.46205883 75.88490701 26.50245696 C66.02158339 26.53258987 56.15830948 26.54742226 46.29494071 26.55073708 C40.40039889 26.55309076 34.50604194 26.56209258 28.61154938 26.58719826 C23.06625228 26.61043451 17.52126237 26.61473003 11.97592926 26.60443687 C9.940165 26.60394032 7.90438585 26.61029571 5.8686676 26.62399292 C3.08979919 26.64164471 0.31204118 26.63463875 -2.46682739 26.62145996 C-3.27286714 26.63242921 -4.07890689 26.64339845 -4.90937209 26.6547001 C-10.12273221 26.59498879 -13.09206318 25.58859005 -17.22323608 22.13371277 C-19.86524633 18.08263039 -20.92560493 14.94995627 -20.22323608 10.13371277 C-17.86601526 5.8402034 -15.36926937 2.23872021 -10.61218834 0.56785107 C-7.08470587 -0.07318947 -3.5726473 -0.00707585 0 0 Z " fill="#000000" transform="translate(162.22323608398438,399.8662872314453)"/>
</svg>
